<?xml version="1.0" encoding="UTF-8"?>
<!-- Generator: Adobe Illustrator 16.0.4, SVG Export Plug-In . SVG Version: 6.00 Build 0)  -->
<!DOCTYPE svg PUBLIC "-//W3C//DTD SVG 1.1//EN" "http://www.w3.org/Graphics/SVG/1.1/DTD/svg11.dtd">
<svg version="1.1" id="FeatureCloud_Logo" xmlns="http://www.w3.org/2000/svg" xmlns:xlink="http://www.w3.org/1999/xlink" x="0px" y="0px" width="283.464px" height="59.527px" viewBox="0 0 283.464 59.527" enable-background="new 0 0 283.464 59.527" xml:space="preserve">
<path fill="#004696" d="M39.705,25.503H26.376c-8.271,0-15,5.894-15,14.164L11.375,56.69c0,1.566,1.27,2.837,2.838,2.837  c1.567,0,2.838-1.271,2.838-2.837l0.002-14.159h11.326c1.567,0,2.837-1.271,2.837-2.838c0-1.568-1.271-2.838-2.837-2.838H17.519  c1.222-3.514,4.728-5.677,8.857-5.677h13.328c1.567,0,2.838-1.271,2.838-2.838C42.543,26.773,41.272,25.503,39.705,25.503z"/>
<path fill="#1EBEE6" d="M59.527,28.356c0,8.271-6.729,14.175-15,14.175h-7.625c-1.567,0-2.838-1.271-2.838-2.838  c0-1.568,1.271-2.838,2.838-2.838h7.625c5.142,0,9.324-3.357,9.324-8.499c0-6.232-5.799-8.487-8.395-8.487  c-1.912,0-2.865-1.613-2.865-2.869c0-6.084-5.075-11.325-11.369-11.325c-3.661,0-6.922,1.74-9.001,4.438l-0.007-0.005  c-0.511,0.749-1.37,1.241-2.345,1.241c-1.568,0-2.839-1.271-2.839-2.838c0-0.664,0.237-1.266,0.619-1.75l-0.004-0.003  C20.757,2.655,25.687,0,31.222,0c8.551,0,15.65,6.334,16.853,14.556C54.633,15.986,59.527,21.316,59.527,28.356z M11.377,39.667  c0-1.154,0.143-2.255,0.392-3.307c-3.551-1.097-6.092-4.01-6.092-8.014c0-5.141,4.182-8.488,9.323-8.488h13.421  c1.567,0,2.837-1.271,2.837-2.838s-1.27-2.838-2.837-2.838H15c-8.271,0-15,5.895-15,14.165c0,7.02,4.854,12.319,11.377,13.766  V39.667z"/>
<path fill="#C8D200" d="M17.051,56.686c0,1.568-1.271,2.838-2.838,2.838c-1.568,0-2.838-1.271-2.838-2.838s1.271-2.838,2.838-2.838  C15.78,53.848,17.051,55.118,17.051,56.686z M28.383,36.854c-1.568,0-2.838,1.271-2.838,2.838c0,1.567,1.271,2.838,2.838,2.838  s2.838-1.271,2.838-2.838C31.222,38.125,29.951,36.854,28.383,36.854z M28.42,14.192c-1.567,0-2.838,1.271-2.838,2.839  c0,1.567,1.271,2.838,2.838,2.838c1.568,0,2.838-1.271,2.838-2.838C31.258,15.463,29.988,14.192,28.42,14.192z M39.704,25.503  c-1.568,0-2.838,1.27-2.838,2.838s1.271,2.839,2.838,2.839c1.567,0,2.839-1.271,2.839-2.839S41.271,25.503,39.704,25.503z"/>
<path fill="#1EBEE6" d="M274.814,43.087c-5.497,0-8.65-2.954-8.65-8.105v-5.074c0-5.074,3.078-8.104,8.235-8.104  c1.328,0,2.931,0.37,4.218,0.961v-6.307c0-1.324,1.01-2.285,2.403-2.285c1.417,0,2.445,0.961,2.445,2.285v23.008  c0,1.175-0.776,2.188-1.977,2.583C279.357,42.737,277.112,43.087,274.814,43.087z M274.814,26.096c-2.524,0-3.804,1.203-3.804,3.576  v5.545c0,2.331,1.351,3.615,3.804,3.615c1.271,0,2.581-0.166,3.803-0.483V27.3C277.415,26.501,276.137,26.096,274.814,26.096z   M254.375,43.087c-5.66,0-8.652-2.775-8.652-8.027V24.088c0-1.323,1.012-2.284,2.404-2.284c1.416,0,2.443,0.961,2.443,2.284v11.13  c0,2.398,1.28,3.615,3.805,3.615c1.406,0,2.729-0.252,3.76-0.491V24.088c0-1.323,1.011-2.284,2.404-2.284  c1.417,0,2.444,0.961,2.444,2.284v15.416c0,1.182-0.79,2.158-2.064,2.547C258.671,42.747,256.53,43.087,254.375,43.087z   M234.02,43.087c-5.651,0-9.024-3.178-9.024-8.499v-4.286c0-5.321,3.373-8.498,9.024-8.498c5.623,0,8.981,3.177,8.981,8.498v4.286  C243.001,39.909,239.643,43.087,234.02,43.087z M234.02,26.096c-2.654,0-4.177,1.447-4.177,3.97v4.758  c0,2.585,1.484,4.009,4.177,4.009c2.666,0,4.133-1.423,4.133-4.009v-4.758C238.153,27.506,236.686,26.096,234.02,26.096z   M219.662,43.087c-1.417,0-2.444-0.961-2.444-2.285V16.458c0-1.324,1.027-2.285,2.444-2.285c1.391,0,2.402,0.961,2.402,2.285v24.344  C222.064,42.125,221.053,43.087,219.662,43.087z M206.918,43.087c-6.512,0-10.72-3.938-10.72-10.032v-8.849  c0-6.188,4.109-10.032,10.72-10.032c2.445,0,4.428,0.472,6.431,1.531c1.075,0.553,1.599,1.276,1.599,2.209  c0,1.042-0.887,2.166-2.321,2.166c-0.494,0-0.948-0.134-1.474-0.433c-1.487-0.762-2.677-1.062-4.235-1.062  c-3.6,0-5.749,1.998-5.749,5.346v9.399c0,3.347,2.149,5.345,5.749,5.345c1.427,0,2.72-0.322,3.952-0.985  c0.767-0.404,1.226-0.547,1.758-0.547c1.257,0,2.321,1.01,2.321,2.206c0,0.815-0.357,1.418-1.158,1.957  C211.584,42.777,208.835,43.087,206.918,43.087z"/>
<path fill="#004696" d="M184.07,43.087c-5.315,0-8.75-3.213-8.75-8.184v-4.917c0-4.971,3.435-8.183,8.75-8.183  c5.208,0,8.708,3.288,8.708,8.183v1.928c0,1.316-1.097,2.678-2.934,2.678h-9.622v0.468c0,1.135,0.375,3.773,3.848,3.773  c1.74,0,2.989-0.399,4.121-0.808c0.627-0.235,1.087-0.373,1.57-0.373c1.269,0,2.263,0.935,2.263,2.127  c0,0.879-0.462,1.569-1.299,1.943C188.77,42.662,185.654,43.087,184.07,43.087z M187.875,30.299v-0.313  c0-2.619-1.245-3.89-3.805-3.89c-2.553,0-3.848,1.269-3.848,3.773v0.43H187.875z M165.615,43.087c-1.433,0-2.472-0.961-2.472-2.285  V28.021c0-3.777,2.58-6.217,6.573-6.217c1.133,0,2.3,0.102,3.201,0.281c1.219,0.22,1.951,1.043,1.951,2.199  c0,1.232-0.988,2.127-2.348,2.127c-0.296,0-0.616-0.046-0.986-0.099c-0.449-0.064-0.957-0.137-1.524-0.137  c-1.193,0-1.965,0.771-1.965,1.963v12.663C168.044,42.125,167.022,43.087,165.615,43.087z M151.512,43.087  c-5.725,0-8.751-2.775-8.751-8.027V24.088c0-1.323,1.023-2.284,2.432-2.284c1.432,0,2.472,0.961,2.472,2.284v11.13  c0,2.398,1.294,3.615,3.848,3.615c1.424,0,2.761-0.252,3.805-0.491V24.088c0-1.323,1.021-2.284,2.43-2.284  c1.433,0,2.473,0.961,2.473,2.284v15.416c0,1.182-0.801,2.158-2.09,2.547C155.857,42.747,153.692,43.087,151.512,43.087z   M136.027,43.087c-4.019,0-6.615-2.549-6.615-6.493V16.458c0-1.324,1.04-2.285,2.473-2.285c1.409,0,2.431,0.961,2.431,2.285v5.739  h3.804c1.454,0,2.43,0.886,2.43,2.206c0,1.319-0.976,2.205-2.43,2.205h-3.804v10.104c0,1.355,0.618,2.042,1.838,2.042  c0.555,0,0.917-0.059,1.237-0.11c0.273-0.044,0.531-0.086,0.855-0.086c1.399,0,2.304,0.835,2.304,2.127  c0,1.097-0.781,1.924-2.038,2.161C137.602,43.016,136.882,43.087,136.027,43.087z M117.531,43.087c-5.916,0-9.044-2.3-9.044-6.65  c0-4.175,3.296-6.571,9.044-6.571h3.513v-1.295c0-1.526-1.298-2.475-3.387-2.475c-1.458,0-2.552,0.209-3.55,0.679l-0.21,0.093  c-0.633,0.282-1.178,0.526-1.848,0.526c-1.113,0-2.305-0.871-2.305-2.166c0-0.753,0.43-1.446,1.148-1.851  c1.333-0.76,3.767-1.573,6.599-1.573c5.137,0,8.456,2.641,8.456,6.729v11.129c0,1.142-0.738,2.109-1.877,2.466  C122.272,42.718,119.765,43.087,117.531,43.087z M117.405,34.158c-2.777,0-4.014,0.727-4.014,2.357c0,1.668,1.148,2.317,4.099,2.317  c1.217,0,2.381-0.134,3.554-0.41v-4.265H117.405z M97.987,43.087c-5.314,0-8.749-3.213-8.749-8.184v-4.917  c0-4.971,3.435-8.183,8.749-8.183c5.208,0,8.708,3.288,8.708,8.183v1.928c0,1.316-1.096,2.678-2.932,2.678h-9.622v0.468  c0,1.135,0.375,3.773,3.846,3.773c1.74,0,2.99-0.399,4.121-0.808c0.628-0.235,1.087-0.373,1.57-0.373  c1.27,0,2.264,0.935,2.264,2.127c0,0.88-0.462,1.569-1.3,1.943C102.688,42.662,99.573,43.087,97.987,43.087z M101.793,30.299v-0.313  c0-2.619-1.245-3.89-3.806-3.89c-2.553,0-3.846,1.269-3.846,3.773v0.43H101.793z M73.38,43.087c-1.48,0-2.514-0.972-2.514-2.363  V17.245c0-1.476,1.316-2.678,2.932-2.678h12.262c1.409,0,2.431,0.944,2.431,2.245c0,1.344-1,2.283-2.431,2.283H75.853v6.758h9.665  c1.408,0,2.431,0.944,2.431,2.245c0,1.324-1.022,2.284-2.431,2.284h-9.665v10.34C75.853,42.115,74.836,43.087,73.38,43.087z"/>
</svg>